<?xml version="1.0" standalone="no"?>
<!DOCTYPE svg PUBLIC "-//W3C//DTD SVG 20010904//EN"
 "http://www.w3.org/TR/2001/REC-SVG-20010904/DTD/svg10.dtd">
<svg version="1.0" xmlns="http://www.w3.org/2000/svg"
 width="393.000000pt" height="393.000000pt" viewBox="0 0 393.000000 393.000000"
 preserveAspectRatio="xMidYMid meet">
<metadata>
Created by potrace 1.11, written by Peter Selinger 2001-2013
</metadata>
<g transform="translate(0.000000,393.000000) scale(0.100000,-0.100000)"
fill="#000000" stroke="none">
<path d="M3035 3850 c-16 -5 -122 -34 -235 -65 -113 -31 -214 -58 -224 -60
-10 -3 -33 -9 -51 -15 -18 -6 -41 -12 -51 -14 -10 -3 -95 -25 -187 -50 -93
-26 -180 -44 -195 -41 -15 2 -45 7 -67 10 -22 4 -51 8 -65 10 -14 3 -43 7 -65
10 -22 3 -65 10 -95 15 -30 5 -73 12 -95 15 -23 3 -50 7 -60 9 -11 2 -40 7
-65 10 -25 3 -54 8 -65 10 -27 5 -91 15 -140 22 -22 3 -65 9 -95 14 -53 9 -88
14 -175 26 -22 2 -47 7 -55 9 -8 2 -37 7 -63 11 -27 3 -84 12 -128 19 -141 22
-233 7 -329 -55 -78 -50 -126 -111 -162 -207 -40 -105 -22 -265 39 -360 19
-29 11 -39 -34 -48 -106 -19 -213 -73 -272 -135 -128 -136 -129 -352 -2 -473
20 -19 142 -107 271 -196 129 -88 242 -165 250 -171 25 -18 244 -169 260 -181
8 -5 62 -42 119 -82 l104 -72 82 -160 c45 -88 144 -281 219 -430 76 -148 195
-380 264 -515 218 -427 231 -450 264 -492 87 -110 259 -167 402 -134 134 32
218 106 300 265 152 296 164 316 183 313 60 -9 173 -8 216 4 140 37 252 130
292 244 17 47 23 91 30 205 11 200 16 275 21 340 3 39 7 104 9 145 16 258 12
239 59 330 59 116 281 551 376 735 86 169 98 199 103 284 12 173 -94 338 -258
402 -36 15 -49 18 -100 25 -65 9 -64 7 -61 81 5 140 -55 262 -169 340 -75 52
-214 76 -300 53z"/>
</g>
</svg>
